Disc One

   1. "Frank and Jesse James" (Zevon) – 5:03
   2. "Hasten Down the Wind" (Zevon) – 4:48
   3. "Poor Poor Pitiful Me" (Zevon) – 3:13
   4. "I'll Sleep When I'm Dead" (Zevon) – 3:12
   5. "Carmelita" (Zevon) – 3:26
   6. "Desperados Under the Eaves" (Zevon) – 4:05
   7. "Johnny Strikes up the Band" (Zevon) – 3:46
   8. "Roland the Headless Thompson Gunner" (Lindell, Zevon) – 4:29
   9. "Excitable Boy" (Marinell, Zevon) – 2:30
  10. "Werewolves of London" (Marinell, Wachtel, Zevon) – 3:54
  11. "Accidentally Like a Martyr" (Zevon) – 4:04
  12. "Lawyers, Guns and Money" (Zevon) – 2:53
  13. "Frozen Notes" (Zevon) – 4:17
  14. "Bad Luck Streak in Dancing School" (Zevon) – 3:22
  15. "Gorilla, You're a Desperado" (Zevon) – 2:23
  16. "Play It All Night Long" (Zevon) – 4:21
  17. "Mohammed's Radio" [live] (Zevon) – 4:14
  18. "Jeannie Needs a Shooter" (Bruce Springsteen, Zevon) – 3:42
  19. "The Envoy" (Zevon) – 1:45
  20. "The Hula Hula Boys" (Zevon) – 3:11
  21. "Let Nothing Come Between You" (Zevon) – 3:55
  22. "Looking for the Next Best Thing" (Edwards, Marinell, Zevon) – 3:17

Disc Two

   1. "Sentimental Hygiene" (Zevon) – 4:36
   2. "Boom Boom Mancini" (Zevon) – 3:00
   3. "Detox Mansion" (Calderón, Zevon) – 3:05
   4. "Bad Karma" (Zevon) – 2:58
   5. "Reconsider Me" [single version] (Zevon) – 3:35
   6. "Run Straight Down" (Zevon) – 4:46
   7. "The Long Arm of the Law" (Zevon) – 2:48
   8. "Splendid Isolation" (Zevon) – 3:45
   9. "You Don't Know What Love Is" (DePaul, Raye) – 2:41
  10. "Raspberry Beret" (Prince) – 3:27
  11. "Suzie Lightning" (Zevon) – 3:38
  12. "Things to Do in Denver When You're Dead" (Marinell, Wachtel, Zevon) – 3:31
  13. "Searching for a Heart" (Zevon) – 2:00
  14. "Mr. Bad Example" (Calderón, Zevon) – 2:59
  15. "Roll With the Punches" (Zevon) – 2:47
  16. "The French Inhaler" [live] (Zevon) – 3:18
  17. "The Indifference of Heaven" [live] (Zevon) – 4:49
  18. "If You Won't Leave Me I'll Find Somebody Who Will" (Zevon) – 4:06
  19. "Real or Not" (Zevon) – 3:12
  20. "Seminole Bingo" (Hiaasen, Zevon) – 3:02
  21. "Monkey Wash Donkey Rinse" (Aldrich, Zevon) – 3:39
  22. "Mutineer" (Zevon) – 3:38


Exact Audio Copy V0.99 prebeta 4 from 23. January 2008

EAC extraction logfile from 18. August 2009, 13:47

Warren Zevon / I'll Sleep When I'm Dead (An Anthology) Disc 1

Used drive  : ATAPI   DVD D  DH16D3P   Adapter: 0  ID: 1

Read mode               : Secure
Utilize accurate stream : Yes
Defeat audio cache      : No
Make use of C2 pointers : No

Read offset correction                      : 6
Overread into Lead-In and Lead-Out          : No
Fill up missing offset samples with silence : Yes
Delete leading and trailing silent blocks   : No
Null samples used in CRC calculations       : No
Used interface                              : Installed external ASPI interface
Gap handling                                : Not detected, thus appended to previous track

Used output format              : User Defined Encoder
Selected bitrate                : 768 kBit/s
Quality                         : High
Add ID3 tag                     : No
Command line compressor         : C:Program FilesExact Audio CopyFLACFLAC.EXE
Additional command line options : -6 -V -T "ARTIST=%a" -T "TITLE=%t" -T "ALBUM=%g" -T "DATE=%y" -T "TRACKNUMBER=%n" -T "GENRE=%m" -T "COMMENT=%e" %s -o %d


TOC of the extracted CD

     Track |   Start  |  Length  | Start sector | End sector 
    ---------------------------------------------------------
        1  |  0:00.32 |  4:36.18 |        32    |    20749   
        2  |  4:36.50 |  3:00.55 |     20750    |    34304   
        3  |  7:37.30 |  3:05.72 |     34305    |    48251   
        4  | 10:43.27 |  2:58.18 |     48252    |    61619   
        5  | 13:41.45 |  3:35.07 |     61620    |    77751   
        6  | 17:16.52 |  4:46.55 |     77752    |    99256   
        7  | 22:03.32 |  2:48.65 |     99257    |   111921   
        8  | 24:52.22 |  3:45.03 |    111922    |   128799   
        9  | 28:37.25 |  2:41.02 |    128800    |   140876   
       10  | 31:18.27 |  3:27.65 |    140877    |   156466   
       11  | 34:46.17 |  3:38.33 |    156467    |   172849   
       12  | 38:24.50 |  3:31.45 |    172850    |   188719   
       13  | 41:56.20 |  2:00.67 |    188720    |   197786   
       14  | 43:57.12 |  2:59.18 |    197787    |   211229   
       15  | 46:56.30 |  2:47.02 |    211230    |   223756   
       16  | 49:43.32 |  3:18.03 |    223757    |   238609   
       17  | 53:01.35 |  4:49.15 |    238610    |   260299   
       18  | 57:50.50 |  4:06.47 |    260300    |   278796   
       19  | 61:57.22 |  3:12.73 |    278797    |   293269   
       20  | 65:10.20 |  3:02.10 |    293270    |   306929   
       21  | 68:12.30 |  3:39.07 |    306930    |   323361   
       22  | 71:51.37 |  3:38.25 |    323362    |   339736   


Track  1

     Filename E:MusicWarren ZevonI'll Sleep When I'm Dead (An Anthology)Warren Zevon - I'll Sleep When I'm Dead (An Anthology) Disc 1 - 01. Frank And Jesse James.wav

     Peak level 99.9 %
     Track quality 100.0 %
     Test CRC D66335AE
     Copy CRC D66335AE
     Accurately ripped (confidence 12)  [B81319F8]
     Copy OK

Track  2

     Filename E:MusicWarren ZevonI'll Sleep When I'm Dead (An Anthology)Warren Zevon - I'll Sleep When I'm Dead (An Anthology) Disc 1 - 02. Hasten Down The Wind.wav

     Peak level 99.9 %
     Track quality 100.0 %
     Test CRC 0E91CE6E
     Copy CRC 0E91CE6E
     Accurately ripped (confidence 12)  [E5CEBA93]
     Copy OK

Track  3

     Filename E:MusicWarren ZevonI'll Sleep When I'm Dead (An Anthology)Warren Zevon - I'll Sleep When I'm Dead (An Anthology) Disc 1 - 03. Poor Poor Pitiful Me.wav

     Peak level 99.9 %
     Track quality 99.9 %
     Test CRC FDE7EAF9
     Copy CRC FDE7EAF9
     Accurately ripped (confidence 12)  [53333E57]
     Copy OK

Track  4

     Filename E:MusicWarren ZevonI'll Sleep When I'm Dead (An Anthology)Warren Zevon - I'll Sleep When I'm Dead (An Anthology) Disc 1 - 04. I'll Sleep When I'm Dead.wav

     Peak level 99.9 %
     Track quality 100.0 %
     Test CRC CA4B6920
     Copy CRC CA4B6920
     Accurately ripped (confidence 12)  [4ADEEBD6]
     Copy OK

Track  5

     Filename E:MusicWarren ZevonI'll Sleep When I'm Dead (An Anthology)Warren Zevon - I'll Sleep When I'm Dead (An Anthology) Disc 1 - 05. Carmelita.wav

     Peak level 99.9 %
     Track quality 100.0 %
     Test CRC C8A06DE4
     Copy CRC C8A06DE4
     Accurately ripped (confidence 12)  [62DA343D]
     Copy OK

Track  6

     Filename E:MusicWarren ZevonI'll Sleep When I'm Dead (An Anthology)Warren Zevon - I'll Sleep When I'm Dead (An Anthology) Disc 1 - 06. Desperados Under The Eaves.wav

     Peak level 99.9 %
     Track quality 100.0 %
     Test CRC 6E35FBCC
     Copy CRC 6E35FBCC
     Accurately ripped (confidence 12)  [D2740E23]
     Copy OK

Track  7

     Filename E:MusicWarren ZevonI'll Sleep When I'm Dead (An Anthology)Warren Zevon - I'll Sleep When I'm Dead (An Anthology) Disc 1 - 07. Johnny Strikes Up The Band.wav

     Peak level 99.9 %
     Track quality 100.0 %
     Test CRC 431E24EB
     Copy CRC 431E24EB
     Accurately ripped (confidence 12)  [50F0BE01]
     Copy OK

Track  8

     Filename E:MusicWarren ZevonI'll Sleep When I'm Dead (An Anthology)Warren Zevon - I'll Sleep When I'm Dead (An Anthology) Disc 1 - 08. Roland The Headless Thompson Gunner.wav

     Peak level 99.9 %
     Track quality 100.0 %
     Test CRC 289ACCC8
     Copy CRC 289ACCC8
     Accurately ripped (confidence 12)  [67944743]
     Copy OK

Track  9

     Filename E:MusicWarren ZevonI'll Sleep When I'm Dead (An Anthology)Warren Zevon - I'll Sleep When I'm Dead (An Anthology) Disc 1 - 09. Excitable Boy.wav

     Peak level 99.9 %
     Track quality 99.9 %
     Test CRC 838FC04A
     Copy CRC 838FC04A
     Accurately ripped (confidence 12)  [4E057681]
     Copy OK

Track 10

     Filename E:MusicWarren ZevonI'll Sleep When I'm Dead (An Anthology)Warren Zevon - I'll Sleep When I'm Dead (An Anthology) Disc 1 - 10. Werewolves Of London.wav

     Peak level 99.9 %
     Track quality 99.9 %
     Test CRC 59BB528A
     Copy CRC 59BB528A
     Accurately ripped (confidence 12)  [21FC59CC]
     Copy OK

Track 11

     Filename E:MusicWarren ZevonI'll Sleep When I'm Dead (An Anthology)Warren Zevon - I'll Sleep When I'm Dead (An Anthology) Disc 1 - 11. Accidentally Like A Martyr.wav

     Peak level 99.9 %
     Track quality 100.0 %
     Test CRC 9D87E025
     Copy CRC 9D87E025
     Accurately ripped (confidence 12)  [817A6750]
     Copy OK

Track 12

     Filename E:MusicWarren ZevonI'll Sleep When I'm Dead (An Anthology)Warren Zevon - I'll Sleep When I'm Dead (An Anthology) Disc 1 - 12. Lawyers, Guns And Money.wav

     Peak level 99.9 %
     Track quality 100.0 %
     Test CRC 8D437DB9
     Copy CRC 8D437DB9
     Accurately ripped (confidence 12)  [8F78DABB]
     Copy OK

Track 13

     Filename E:MusicWarren ZevonI'll Sleep When I'm Dead (An Anthology)Warren Zevon - I'll Sleep When I'm Dead (An Anthology) Disc 1 - 13. Frozen Notes.wav

     Peak level 99.9 %
     Track quality 100.0 %
     Test CRC 2E91159F
     Copy CRC 2E91159F
     Accurately ripped (confidence 12)  [FC6B8FAA]
     Copy OK

Track 14

     Filename E:MusicWarren ZevonI'll Sleep When I'm Dead (An Anthology)Warren Zevon - I'll Sleep When I'm Dead (An Anthology) Disc 1 - 14. Bad Luck Streak In Dancing School.wav

     Peak level 99.9 %
     Track quality 100.0 %
     Test CRC 4FB9DD03
     Copy CRC 4FB9DD03
     Accurately ripped (confidence 12)  [788D5EC5]
     Copy OK

Track 15

     Filename E:MusicWarren ZevonI'll Sleep When I'm Dead (An Anthology)Warren Zevon - I'll Sleep When I'm Dead (An Anthology) Disc 1 - 15. Gorilla, You're A Desperado.wav

     Peak level 99.9 %
     Track quality 99.9 %
     Test CRC 7CC0D9CC
     Copy CRC 7CC0D9CC
     Accurately ripped (confidence 12)  [AB5260BC]
     Copy OK

Track 16

     Filename E:MusicWarren ZevonI'll Sleep When I'm Dead (An Anthology)Warren Zevon - I'll Sleep When I'm Dead (An Anthology) Disc 1 - 16. Play It All Night Long.wav

     Peak level 99.9 %
     Track quality 100.0 %
     Test CRC 2FDFC240
     Copy CRC 2FDFC240
     Accurately ripped (confidence 12)  [2AF514CD]
     Copy OK

Track 17

     Filename E:MusicWarren ZevonI'll Sleep When I'm Dead (An Anthology)Warren Zevon - I'll Sleep When I'm Dead (An Anthology) Disc 1 - 17. Mohammed's Radio (Live Version).wav

     Peak level 99.9 %
     Track quality 99.9 %
     Test CRC 2D69A6B9
     Copy CRC 2D69A6B9
     Accurately ripped (confidence 12)  [C277716B]
     Copy OK

Track 18

     Filename E:MusicWarren ZevonI'll Sleep When I'm Dead (An Anthology)Warren Zevon - I'll Sleep When I'm Dead (An Anthology) Disc 1 - 18. Jeannie Needs A Shooter (Live Version).wav

     Peak level 91.0 %
     Track quality 100.0 %
     Test CRC CB6E9BE3
     Copy CRC CB6E9BE3
     Accurately ripped (confidence 12)  [E43A1BD2]
     Copy OK

Track 19

     Filename E:MusicWarren ZevonI'll Sleep When I'm Dead (An Anthology)Warren Zevon - I'll Sleep When I'm Dead (An Anthology) Disc 1 - 19. The Envoy.wav

     Peak level 99.9 %
     Track quality 100.0 %
     Test CRC 0723375C
     Copy CRC 0723375C
     Accurately ripped (confidence 12)  [71206E23]
     Copy OK

Track 20

     Filename E:MusicWarren ZevonI'll Sleep When I'm Dead (An Anthology)Warren Zevon - I'll Sleep When I'm Dead (An Anthology) Disc 1 - 20. The Hula Hula Boys.wav

     Peak level 99.9 %
     Track quality 100.0 %
     Test CRC 25BDB748
     Copy CRC 25BDB748
     Accurately ripped (confidence 12)  [F8803001]
     Copy OK

Track 21

     Filename E:MusicWarren ZevonI'll Sleep When I'm Dead (An Anthology)Warren Zevon - I'll Sleep When I'm Dead (An Anthology) Disc 1 - 21. Let Nothing Come Between You.wav

     Peak level 99.9 %
     Track quality 99.9 %
     Test CRC 084B4297
     Copy CRC 084B4297
     Accurately ripped (confidence 12)  [283F769A]
     Copy OK

Track 22

     Filename E:MusicWarren ZevonI'll Sleep When I'm Dead (An Anthology)Warren Zevon - I'll Sleep When I'm Dead (An Anthology) Disc 1 - 22. Looking For The Next Best Thing.wav

     Peak level 99.9 %
     Track quality 100.0 %
     Test CRC C7153F8D
     Copy CRC C7153F8D
     Accurately ripped (confidence 12)  [8C8DB548]
     Copy OK


All tracks accurately ripped

No errors occurred

End of status report


Exact Audio Copy V0.99 prebeta 4 from 23. January 2008

EAC extraction logfile from 18. August 2009, 14:17

Warren Zevon / I'll Sleep When I'm Dead (An Anthology) Disc 2

Used drive  : ATAPI   DVD D  DH16D3P   Adapter: 0  ID: 1

Read mode               : Secure
Utilize accurate stream : Yes
Defeat audio cache      : No
Make use of C2 pointers : No

Read offset correction                      : 6
Overread into Lead-In and Lead-Out          : No
Fill up missing offset samples with silence : Yes
Delete leading and trailing silent blocks   : No
Null samples used in CRC calculations       : No
Used interface                              : Installed external ASPI interface
Gap handling                                : Not detected, thus appended to previous track

Used output format              : User Defined Encoder
Selected bitrate                : 768 kBit/s
Quality                         : High
Add ID3 tag                     : No
Command line compressor         : C:Program FilesExact Audio CopyFLACFLAC.EXE
Additional command line options : -6 -V -T "ARTIST=%a" -T "TITLE=%t" -T "ALBUM=%g" -T "DATE=%y" -T "TRACKNUMBER=%n" -T "GENRE=%m" -T "COMMENT=%e" %s -o %d


TOC of the extracted CD

     Track |   Start  |  Length  | Start sector | End sector 
    ---------------------------------------------------------
        1  |  0:00.32 |  5:03.10 |        32    |    22766   
        2  |  5:03.42 |  4:48.68 |     22767    |    44434   
        3  |  9:52.35 |  3:13.05 |     44435    |    58914   
        4  | 13:05.40 |  3:12.40 |     58915    |    73354   
        5  | 16:18.05 |  3:26.30 |     73355    |    88834   
        6  | 19:44.35 |  4:05.55 |     88835    |   107264   
        7  | 23:50.15 |  3:46.25 |    107265    |   124239   
        8  | 27:36.40 |  4:29.50 |    124240    |   144464   
        9  | 32:06.15 |  2:30.27 |    144465    |   155741   
       10  | 34:36.42 |  3:54.18 |    155742    |   173309   
       11  | 38:30.60 |  4:04.57 |    173310    |   191666   
       12  | 42:35.42 |  2:53.08 |    191667    |   204649   
       13  | 45:28.50 |  4:17.62 |    204650    |   223986   
       14  | 49:46.37 |  3:22.08 |    223987    |   239144   
       15  | 53:08.45 |  2:23.57 |    239145    |   249926   
       16  | 55:32.27 |  4:21.03 |    249927    |   269504   
       17  | 59:53.30 |  4:14.07 |    269505    |   288561   
       18  | 64:07.37 |  0:42.68 |    288562    |   291779   
       19  | 64:50.30 |  1:45.17 |    291780    |   299671   
       20  | 66:35.47 |  3:11.70 |    299672    |   314066   
       21  | 69:47.42 |  3:55.05 |    314067    |   331696   
       22  | 73:42.47 |  3:17.23 |    331697    |   346494   


Track  1

     Filename E:MusicWarren ZevonI'll Sleep When I'm Dead (An Anthology)Warren Zevon - I'll Sleep When I'm Dead (An Anthology) Disc 2 - 01. Sentimental Hygiene.wav

     Peak level 99.8 %
     Track quality 100.0 %
     Test CRC F06D4D58
     Copy CRC F06D4D58
     Accurately ripped (confidence 10)  [AF1DAC4B]
     Copy OK

Track  2

     Filename E:MusicWarren ZevonI'll Sleep When I'm Dead (An Anthology)Warren Zevon - I'll Sleep When I'm Dead (An Anthology) Disc 2 - 02. Boom Boom Mancini.wav

     Peak level 99.9 %
     Track quality 99.9 %
     Test CRC FB1B865C
     Copy CRC FB1B865C
     Accurately ripped (confidence 10)  [0D591A6D]
     Copy OK

Track  3

     Filename E:MusicWarren ZevonI'll Sleep When I'm Dead (An Anthology)Warren Zevon - I'll Sleep When I'm Dead (An Anthology) Disc 2 - 03. Detox Mansion.wav

     Peak level 99.9 %
     Track quality 100.0 %
     Test CRC E5F7DC52
     Copy CRC E5F7DC52
     Accurately ripped (confidence 10)  [6A4D538C]
     Copy OK

Track  4

     Filename E:MusicWarren ZevonI'll Sleep When I'm Dead (An Anthology)Warren Zevon - I'll Sleep When I'm Dead (An Anthology) Disc 2 - 04. Bad Karma.wav

     Peak level 99.9 %
     Track quality 100.0 %
     Test CRC CA34F2A6
     Copy CRC CA34F2A6
     Accurately ripped (confidence 10)  [E59D0D1B]
     Copy OK

Track  5

     Filename E:MusicWarren ZevonI'll Sleep When I'm Dead (An Anthology)Warren Zevon - I'll Sleep When I'm Dead (An Anthology) Disc 2 - 05. Reconsider Me (Single Version).wav

     Peak level 93.4 %
     Track quality 100.0 %
     Test CRC 2652240A
     Copy CRC 2652240A
     Accurately ripped (confidence 10)  [7AE6DFB5]
     Copy OK

Track  6

     Filename E:MusicWarren ZevonI'll Sleep When I'm Dead (An Anthology)Warren Zevon - I'll Sleep When I'm Dead (An Anthology) Disc 2 - 06. Run Straight Down.wav

     Peak level 99.9 %
     Track quality 99.9 %
     Test CRC 1929CAA5
     Copy CRC 1929CAA5
     Accurately ripped (confidence 10)  [859B05F8]
     Copy OK

Track  7

     Filename E:MusicWarren ZevonI'll Sleep When I'm Dead (An Anthology)Warren Zevon - I'll Sleep When I'm Dead (An Anthology) Disc 2 - 07. The Long Arm of the Law.wav

     Peak level 99.9 %
     Track quality 100.0 %
     Test CRC 09DCF4F6
     Copy CRC 09DCF4F6
     Accurately ripped (confidence 10)  [36A27C20]
     Copy OK

Track  8

     Filename E:MusicWarren ZevonI'll Sleep When I'm Dead (An Anthology)Warren Zevon - I'll Sleep When I'm Dead (An Anthology) Disc 2 - 08. Splendid Isolation.wav

     Peak level 99.9 %
     Track quality 100.0 %
     Test CRC A42CCEC2
     Copy CRC A42CCEC2
     Accurately ripped (confidence 10)  [7B445E66]
     Copy OK

Track  9

     Filename E:MusicWarren ZevonI'll Sleep When I'm Dead (An Anthology)Warren Zevon - I'll Sleep When I'm Dead (An Anthology) Disc 2 - 09. You Don't Know What Love Is - with Mark Isham.wav

     Peak level 88.9 %
     Track quality 100.0 %
     Test CRC A48D476A
     Copy CRC A48D476A
     Accurately ripped (confidence 10)  [815C83DF]
     Copy OK

Track 10

     Filename E:MusicWarren ZevonI'll Sleep When I'm Dead (An Anthology)Warren Zevon - I'll Sleep When I'm Dead (An Anthology) Disc 2 - 10. Raspberry Beret - Hindu Love Gods.wav

     Peak level 88.3 %
     Track quality 100.0 %
     Test CRC 4F401B47
     Copy CRC 4F401B47
     Accurately ripped (confidence 10)  [1AD94465]
     Copy OK

Track 11

     Filename E:MusicWarren ZevonI'll Sleep When I'm Dead (An Anthology)Warren Zevon - I'll Sleep When I'm Dead (An Anthology) Disc 2 - 11. Suzy Lightning.wav

     Peak level 99.9 %
     Track quality 100.0 %
     Test CRC 33E72418
     Copy CRC 33E72418
     Accurately ripped (confidence 10)  [71605286]
     Copy OK

Track 12

     Filename E:MusicWarren ZevonI'll Sleep When I'm Dead (An Anthology)Warren Zevon - I'll Sleep When I'm Dead (An Anthology) Disc 2 - 12. Things To Do In Denver When You're Dead.wav

     Peak level 98.3 %
     Track quality 100.0 %
     Test CRC 63FCB905
     Copy CRC 63FCB905
     Accurately ripped (confidence 10)  [FD77C4EE]
     Copy OK

Track 13

     Filename E:MusicWarren ZevonI'll Sleep When I'm Dead (An Anthology)Warren Zevon - I'll Sleep When I'm Dead (An Anthology) Disc 2 - 13. Searching For A Heart.wav

     Peak level 99.9 %
     Track quality 100.0 %
     Test CRC 3E9FE468
     Copy CRC 3E9FE468
     Accurately ripped (confidence 10)  [B7C7F00D]
     Copy OK

Track 14

     Filename E:MusicWarren ZevonI'll Sleep When I'm Dead (An Anthology)Warren Zevon - I'll Sleep When I'm Dead (An Anthology) Disc 2 - 14. Mr. Bad Example.wav

     Peak level 99.9 %
     Track quality 100.0 %
     Test CRC 2B9C4B15
     Copy CRC 2B9C4B15
     Accurately ripped (confidence 11)  [2A5095E4]
     Copy OK

Track 15

     Filename E:MusicWarren ZevonI'll Sleep When I'm Dead (An Anthology)Warren Zevon - I'll Sleep When I'm Dead (An Anthology) Disc 2 - 15. Roll With The Punches.wav

     Peak level 90.3 %
     Track quality 99.9 %
     Test CRC 29A18D65
     Copy CRC 29A18D65
     Accurately ripped (confidence 10)  [1339F712]
     Copy OK

Track 16

     Filename E:MusicWarren ZevonI'll Sleep When I'm Dead (An Anthology)Warren Zevon - I'll Sleep When I'm Dead (An Anthology) Disc 2 - 16. The French Inhaler (Live Version).wav

     Peak level 84.0 %
     Track quality 100.0 %
     Test CRC 5F58E2D8
     Copy CRC 5F58E2D8
     Accurately ripped (confidence 10)  [CA54B42D]
     Copy OK

Track 17

     Filename E:MusicWarren ZevonI'll Sleep When I'm Dead (An Anthology)Warren Zevon - I'll Sleep When I'm Dead (An Anthology) Disc 2 - 17. The Indifference of Heaven (Live Version).wav

     Peak level 73.0 %
     Track quality 100.0 %
     Test CRC 3D2A4D08
     Copy CRC 3D2A4D08
     Accurately ripped (confidence 10)  [C571297C]
     Copy OK

Track 18

     Filename E:MusicWarren ZevonI'll Sleep When I'm Dead (An Anthology)Warren Zevon - I'll Sleep When I'm Dead (An Anthology) Disc 2 - 18. If You Won't Leave Me I'll Find Somebody Who WIll.wav

     Peak level 84.8 %
     Track quality 100.0 %
     Test CRC 4700A8AE
     Copy CRC 4700A8AE
     Accurately ripped (confidence 10)  [D7917C44]
     Copy OK

Track 19

     Filename E:MusicWarren ZevonI'll Sleep When I'm Dead (An Anthology)Warren Zevon - I'll Sleep When I'm Dead (An Anthology) Disc 2 - 19. Real or Not.wav

     Peak level 78.3 %
     Track quality 99.8 %
     Test CRC 971C2549
     Copy CRC 971C2549
     Accurately ripped (confidence 10)  [C19ABF25]
     Copy OK

Track 20

     Filename E:MusicWarren ZevonI'll Sleep When I'm Dead (An Anthology)Warren Zevon - I'll Sleep When I'm Dead (An Anthology) Disc 2 - 20. Seminole Bingo.wav

     Peak level 99.9 %
     Track quality 99.9 %
     Test CRC 3E479376
     Copy CRC 3E479376
     Accurately ripped (confidence 10)  [2523667B]
     Copy OK

Track 21

     Filename E:MusicWarren ZevonI'll Sleep When I'm Dead (An Anthology)Warren Zevon - I'll Sleep When I'm Dead (An Anthology) Disc 2 - 21. Monkey Wash Donkey Rinse.wav

     Peak level 99.9 %
     Track quality 100.0 %
     Test CRC 6139BD05
     Copy CRC 6139BD05
     Accurately ripped (confidence 10)  [12218A07]
     Copy OK

Track 22

     Filename E:MusicWarren ZevonI'll Sleep When I'm Dead (An Anthology)Warren Zevon - I'll Sleep When I'm Dead (An Anthology) Disc 2 - 22. Mutineer.wav

     Peak level 99.9 %
     Track quality 100.0 %
     Test CRC 713B0DD1
     Copy CRC 713B0DD1
     Accurately ripped (confidence 10)  [163F7219]
     Copy OK


All tracks accurately ripped

No errors occurred

End of status report
